<svg id="svg" version="1.1" xmlns="http://www.w3.org/2000/svg" xmlns:xlink="http://www.w3.org/1999/xlink" width="400" height="312.9483282674772" viewBox="0, 0, 400,312.9483282674772"><g id="svgg"><path id="path0" d="M240.597 7.580 C 232.639 20.003,232.498 20.207,230.425 22.270 C 224.007 28.657,212.694 32.584,200.712 32.584 C 176.475 32.584,153.626 47.837,145.165 69.666 C 144.854 70.468,144.587 71.146,144.572 71.172 C 144.558 71.198,143.017 71.443,141.148 71.716 C 132.922 72.918,125.647 75.301,117.812 79.360 L 114.407 81.124 112.340 80.434 C 96.534 75.159,77.559 79.418,63.055 91.499 C 50.607 101.866,45.981 119.248,51.956 133.205 C 52.432 134.315,52.781 135.254,52.733 135.291 C 52.684 135.329,51.550 135.937,50.213 136.643 C 28.573 148.074,11.189 169.440,4.403 192.948 C -11.084 246.596,24.085 300.863,81.009 311.154 C 85.877 312.034,94.790 312.116,214.583 312.373 C 332.030 312.625,326.676 312.637,331.185 312.113 C 365.249 308.150,392.165 284.271,399.178 251.793 C 400.146 247.311,400.373 228.833,399.519 224.020 C 396.009 204.229,384.132 186.187,367.155 174.858 L 364.826 173.304 365.048 171.941 C 366.840 160.950,361.749 149.370,351.078 140.161 L 349.693 138.967 349.171 135.198 C 345.590 109.375,327.960 86.783,303.222 76.316 C 299.899 74.910,299.583 74.717,297.742 72.958 C 292.321 67.781,286.049 65.327,277.386 64.992 L 273.799 64.853 273.799 63.369 C 273.791 49.876,267.841 31.657,259.376 19.210 C 258.720 18.244,245.809 1.164,245.347 0.650 C 245.247 0.539,243.110 3.658,240.597 7.580 M248.717 30.016 C 255.346 41.179,258.793 52.645,258.829 63.652 L 258.845 68.338 255.927 69.515 C 254.322 70.162,251.242 71.578,249.082 72.661 L 245.154 74.629 243.305 72.809 C 232.558 62.236,214.969 62.576,192.219 73.796 C 179.273 80.181,170.930 87.380,166.668 95.844 C 160.414 108.262,163.307 122.955,173.617 131.139 C 175.509 132.640,175.741 133.003,175.781 134.524 C 175.809 135.580,176.003 135.508,172.036 135.906 C 158.809 137.232,145.312 143.811,134.655 154.127 C 133.141 155.592,132.251 156.296,132.185 156.081 C 132.127 155.896,131.907 155.014,131.695 154.120 C 130.426 148.766,127.119 143.045,123.589 140.094 L 122.548 139.224 124.591 137.150 C 137.486 124.057,139.025 105.585,128.422 91.157 C 128.119 90.744,128.191 90.662,129.273 90.198 C 136.504 87.098,146.714 85.229,153.728 85.721 C 156.069 85.885,156.088 85.882,156.203 85.314 C 156.266 84.999,156.497 83.757,156.717 82.553 C 160.365 62.557,178.090 48.321,200.486 47.399 C 221.542 46.532,236.121 40.200,244.833 28.136 L 246.201 26.242 246.733 26.906 C 247.025 27.271,247.919 28.670,248.717 30.016 M227.002 84.969 C 229.362 85.681,231.112 87.805,231.733 90.713 C 232.513 94.363,232.303 108.502,231.242 123.769 C 230.987 127.447,230.610 132.863,230.406 135.805 C 228.516 163.037,228.187 233.741,229.908 242.918 C 231.032 248.914,233.206 252.708,237.490 256.151 C 241.061 259.021,242.066 260.952,241.904 264.636 C 241.369 276.810,213.154 294.350,200.466 290.395 C 197.359 289.427,195.333 286.885,194.796 283.283 C 194.666 282.413,194.439 280.887,194.291 279.890 C 193.590 275.173,191.667 274.384,189.211 277.804 C 178.666 292.487,154.740 293.319,141.761 279.454 C 128.552 265.343,122.902 229.983,129.629 203.526 C 135.264 181.364,145.549 166.673,160.709 159.135 C 170.451 154.290,182.036 153.459,190.344 157.007 C 193.100 158.185,193.591 158.190,194.180 157.052 C 195.131 155.213,195.731 144.200,195.293 136.656 C 194.597 124.689,193.251 121.376,187.424 117.278 C 182.102 113.535,181.237 108.570,184.932 102.975 C 191.404 93.175,217.368 82.062,227.002 84.969 M280.608 85.000 C 282.529 85.564,284.085 86.643,285.068 88.096 C 287.534 91.740,287.554 93.175,285.719 135.562 C 283.855 178.637,283.820 186.102,285.483 186.630 C 287.045 187.126,287.324 186.841,296.899 174.954 C 313.738 154.051,318.252 150.281,326.444 150.281 C 335.746 150.281,346.120 159.848,345.728 168.065 C 345.526 172.290,343.503 173.938,338.010 174.355 C 330.278 174.942,324.525 178.838,322.147 185.097 C 319.438 192.225,327.129 223.630,336.040 241.824 C 339.997 249.903,343.585 253.994,348.313 255.815 C 353.933 257.979,355.745 259.960,355.745 263.943 C 355.745 270.685,351.305 276.772,341.763 283.116 C 328.781 291.746,317.920 291.690,312.998 282.969 C 308.281 274.610,302.464 251.973,297.864 224.073 C 295.450 209.432,295.474 209.526,293.956 208.740 C 290.477 206.941,285.698 212.856,284.346 220.632 C 283.414 225.997,283.858 250.525,285.140 264.438 C 286.527 279.490,284.878 283.719,275.866 288.218 C 266.316 292.986,250.390 294.103,245.629 290.340 C 242.625 287.966,242.236 285.580,243.608 277.933 C 246.934 259.386,248.863 239.411,249.961 212.158 C 250.853 190.000,251.150 133.168,250.394 129.171 C 249.405 123.942,247.046 120.274,242.486 116.879 C 238.294 113.758,237.109 110.289,238.733 105.897 C 242.688 95.199,269.596 81.771,280.608 85.000 M310.669 97.524 C 320.702 105.030,328.346 115.557,332.153 127.109 C 333.504 131.209,333.584 131.647,332.948 131.454 C 326.254 129.430,314.486 131.788,306.683 136.715 C 305.837 137.250,305.111 137.647,305.070 137.597 C 305.030 137.548,305.302 130.614,305.676 122.188 C 306.050 113.763,306.362 104.100,306.370 100.716 L 306.383 94.562 307.134 95.001 C 307.546 95.243,309.137 96.378,310.669 97.524 M102.414 98.108 C 113.588 99.793,118.629 107.715,114.800 117.576 C 108.640 133.440,76.452 139.156,69.979 125.536 C 63.563 112.035,83.418 95.245,102.414 98.108 M62.130 147.424 C 44.143 160.765,40.981 180.860,54.601 195.270 L 56.900 197.703 56.900 199.290 C 56.900 200.163,57.075 206.206,57.290 212.718 C 57.970 233.386,57.239 248.649,54.805 264.559 C 53.448 273.426,53.242 275.000,53.105 277.568 C 53.006 279.412,53.077 280.997,53.333 282.672 C 53.793 285.677,53.973 285.596,51.093 283.679 C 22.739 264.803,9.593 230.868,18.157 198.663 C 23.854 177.236,39.154 158.721,59.774 148.299 C 62.846 146.746,63.242 146.599,62.130 147.424 M106.865 152.511 C 113.261 154.121,114.002 157.394,112.578 177.751 C 109.452 222.417,110.755 251.199,116.386 261.915 C 116.869 262.834,117.340 263.587,117.433 263.587 C 117.526 263.587,118.064 263.982,118.629 264.465 C 122.495 267.774,121.777 275.405,117.157 280.100 C 107.718 289.695,82.975 292.991,75.248 285.683 C 72.328 282.922,71.934 279.799,73.391 271.003 C 76.525 252.095,77.354 236.324,76.567 210.589 C 75.943 190.161,75.690 189.191,69.280 182.567 C 65.284 178.438,64.643 175.203,66.882 170.468 C 71.340 161.042,96.274 149.843,106.865 152.511 M359.474 187.469 C 386.597 206.267,393.935 242.193,376.181 269.270 C 374.179 272.323,374.147 272.337,374.653 269.909 C 377.343 257.005,371.037 244.933,358.579 239.138 L 356.020 237.947 354.918 236.117 C 350.171 228.231,344.485 211.001,341.888 196.631 C 341.276 193.243,341.074 193.644,343.616 193.201 C 348.666 192.320,354.274 189.693,356.824 187.012 C 357.701 186.089,357.412 186.040,359.474 187.469 M179.775 188.919 C 165.090 192.897,155.081 226.810,165.378 237.698 C 171.044 243.688,181.052 241.424,186.783 232.856 C 194.106 221.909,196.541 209.619,193.654 198.176 C 191.712 190.477,186.602 187.069,179.775 188.919 " stroke="none" fill="#fbfbfb" fill-rule="evenodd"></path><path id="path1" d="M244.982 28.129 C 236.187 40.131,221.500 46.662,201.581 47.427 C 177.873 48.338,160.776 61.938,156.750 83.088 L 156.231 85.812 150.760 85.918 C 143.086 86.067,137.259 87.178,130.776 89.730 L 128.178 90.753 129.507 92.489 C 135.433 100.229,137.117 112.315,133.709 122.636 C 132.029 127.722,129.086 132.555,125.009 136.924 L 122.831 139.258 124.410 140.814 C 128.074 144.427,130.489 148.725,131.804 153.974 L 132.335 156.093 134.800 153.803 C 146.565 142.870,159.560 136.787,173.784 135.553 L 175.775 135.381 175.647 134.134 C 175.538 133.067,175.391 132.782,174.629 132.158 C 166.205 125.257,162.356 116.583,163.393 106.838 C 164.867 93.000,174.253 82.337,192.914 73.303 C 215.461 62.387,232.561 62.210,243.335 72.779 L 245.090 74.501 249.901 72.170 C 252.547 70.888,255.532 69.533,256.535 69.160 C 259.255 68.147,259.062 68.595,258.882 63.709 C 258.417 51.109,252.997 34.874,246.632 27.013 L 246.195 26.474 244.982 28.129 M219.818 84.783 C 206.953 86.819,190.113 95.582,185.192 102.799 C 181.374 108.400,182.123 113.380,187.341 117.078 C 193.898 121.726,195.168 125.358,195.433 140.231 C 195.623 150.836,195.089 156.523,193.794 157.695 C 193.198 158.234,192.679 158.123,189.410 156.752 C 176.138 151.186,156.212 157.964,144.474 172.036 C 137.755 180.092,131.637 194.042,128.762 207.867 C 123.948 231.009,128.857 262.364,139.536 276.680 C 151.726 293.022,177.846 293.477,189.289 277.546 C 192.041 273.716,193.925 275.298,194.773 282.151 C 195.560 288.503,198.165 290.708,204.863 290.690 C 218.391 290.656,239.673 276.433,241.713 266.063 C 242.557 261.771,241.518 259.713,236.235 255.214 C 229.191 249.214,228.666 244.827,228.715 192.340 C 228.743 163.540,229.097 152.527,230.754 128.997 C 231.989 111.460,232.071 109.753,232.081 101.520 C 232.097 88.934,231.308 86.469,226.819 85.072 C 225.446 84.645,221.673 84.489,219.818 84.783 M271.964 84.960 C 261.894 86.878,246.369 95.287,241.537 101.442 C 236.713 107.585,237.053 112.723,242.553 116.825 C 250.837 123.004,251.358 125.503,251.080 157.690 C 250.525 221.878,248.851 249.472,243.799 277.713 C 242.402 285.522,242.654 287.505,245.350 289.941 C 250.589 294.674,269.752 292.582,279.061 286.261 C 284.874 282.313,286.317 277.387,285.130 265.532 C 284.003 254.266,283.672 245.650,283.845 232.097 C 284.007 219.479,284.130 218.624,286.490 213.795 C 289.217 208.214,293.917 206.537,295.530 210.569 C 295.743 211.100,296.744 216.544,297.754 222.667 C 303.781 259.180,310.471 282.397,316.197 286.672 C 322.266 291.202,330.060 290.289,340.511 283.824 C 349.066 278.533,354.182 272.586,355.395 266.525 C 356.485 261.084,354.347 257.910,348.264 255.936 C 341.916 253.876,336.383 245.202,329.810 227.003 C 325.252 214.382,321.611 197.950,321.591 189.904 L 321.581 185.887 322.365 184.312 C 325.444 178.129,330.287 174.888,337.284 174.327 C 342.061 173.944,344.244 172.935,345.140 170.697 C 348.527 162.232,335.910 149.404,325.157 150.378 C 317.904 151.035,313.224 154.946,299.669 171.672 C 297.664 174.146,294.414 178.155,292.448 180.581 C 288.014 186.050,287.222 186.802,286.004 186.701 C 283.532 186.495,283.507 184.091,285.490 138.451 C 287.527 91.573,287.478 90.017,283.845 86.819 C 281.627 84.867,276.592 84.079,271.964 84.960 M306.549 98.645 C 306.626 101.070,306.393 108.815,305.919 119.589 C 305.506 128.993,305.167 136.896,305.167 137.153 C 305.167 137.554,305.396 137.472,306.809 136.561 C 313.957 131.949,323.399 129.915,331.961 131.140 L 333.345 131.338 332.848 129.560 C 329.331 116.980,321.045 105.213,310.041 97.171 C 306.052 94.255,306.406 94.106,306.549 98.645 M93.982 98.025 C 86.906 98.909,76.614 104.489,72.807 109.505 C 66.786 117.441,68.052 127.281,75.552 130.827 C 88.907 137.142,110.823 129.347,114.995 116.798 C 118.999 104.754,109.323 96.109,93.982 98.025 M57.494 149.628 C 4.954 178.739,1.193 249.615,50.413 283.077 C 53.737 285.337,53.593 285.340,53.230 283.012 C 52.774 280.088,53.091 274.677,54.077 268.514 C 55.505 259.597,56.177 253.783,56.911 244.012 C 57.383 237.745,57.453 220.914,57.058 208.924 L 56.687 197.667 54.761 195.632 C 41.240 181.348,43.638 162.195,60.676 148.397 C 62.221 147.145,61.407 147.461,57.494 149.628 M98.845 152.578 C 86.277 154.588,70.505 163.369,67.152 170.224 C 64.693 175.252,65.237 178.185,69.455 182.648 C 75.408 188.947,76.046 190.853,76.488 203.647 C 77.494 232.823,76.996 247.432,74.389 265.289 C 73.989 268.030,73.380 272.188,73.037 274.529 C 72.152 280.561,72.765 283.444,75.446 285.866 C 82.026 291.812,102.235 290.248,113.590 282.915 C 121.136 278.041,123.494 268.891,118.348 264.448 C 112.931 259.772,110.665 244.154,110.954 213.495 C 111.100 198.012,111.329 192.904,112.716 174.103 C 113.068 169.343,113.247 161.785,113.047 160.191 C 112.242 153.778,107.440 151.204,98.845 152.578 M356.158 187.698 C 352.803 190.474,347.905 192.642,343.321 193.380 L 341.474 193.678 342.293 198.055 C 344.485 209.768,348.572 222.749,353.147 232.530 C 355.385 237.314,355.623 237.593,358.755 239.099 C 371.164 245.066,377.209 256.448,374.859 269.422 C 374.432 271.781,374.412 271.786,376.154 269.135 C 393.717 242.415,386.353 206.092,359.653 187.746 C 357.502 186.268,357.881 186.273,356.158 187.698 M186.530 188.843 C 192.087 190.589,194.834 197.023,194.876 208.389 C 194.927 222.161,186.522 237.701,177.508 240.504 C 161.624 245.444,155.613 223.931,166.695 201.805 C 171.894 191.422,179.311 186.576,186.530 188.843 " stroke="none" fill="#343434" fill-rule="evenodd"></path><path id="path2" d="M222.800 65.098 C 223.169 65.154,223.716 65.153,224.016 65.095 C 224.315 65.037,224.012 64.992,223.343 64.994 C 222.675 64.995,222.430 65.043,222.800 65.098 M222.432 84.553 C 222.866 84.607,223.578 84.607,224.012 84.553 C 224.447 84.499,224.091 84.455,223.222 84.455 C 222.353 84.455,221.997 84.499,222.432 84.553 M275.684 84.553 C 276.119 84.607,276.830 84.607,277.264 84.553 C 277.699 84.499,277.343 84.455,276.474 84.455 C 275.605 84.455,275.249 84.499,275.684 84.553 M173.484 86.383 L 172.523 87.416 173.556 86.455 C 174.517 85.561,174.701 85.350,174.517 85.350 C 174.478 85.350,174.013 85.815,173.484 86.383 M150.585 85.772 C 151.224 85.822,152.209 85.821,152.773 85.770 C 153.338 85.719,152.815 85.678,151.611 85.679 C 150.407 85.680,149.946 85.721,150.585 85.772 M287.012 99.696 C 287.012 100.699,287.055 101.109,287.107 100.608 C 287.160 100.106,287.160 99.286,287.107 98.784 C 287.055 98.283,287.012 98.693,287.012 99.696 M187.344 100.000 L 186.383 101.033 187.416 100.072 C 188.377 99.178,188.562 98.967,188.378 98.967 C 188.338 98.967,187.873 99.432,187.344 100.000 M306.473 101.641 C 306.473 103.046,306.513 103.620,306.562 102.918 C 306.611 102.216,306.611 101.067,306.562 100.365 C 306.513 99.663,306.473 100.237,306.473 101.641 M286.743 109.422 C 286.743 109.891,286.793 110.082,286.855 109.848 C 286.916 109.614,286.916 109.231,286.855 108.997 C 286.793 108.763,286.743 108.954,286.743 109.422 M305.953 114.772 C 305.953 115.240,306.003 115.432,306.064 115.198 C 306.125 114.964,306.125 114.581,306.064 114.347 C 306.003 114.112,305.953 114.304,305.953 114.772 M286.500 115.015 C 286.500 115.483,286.550 115.675,286.611 115.441 C 286.673 115.207,286.673 114.824,286.611 114.590 C 286.550 114.356,286.500 114.547,286.500 115.015 M305.710 120.365 C 305.710 120.833,305.760 121.024,305.821 120.790 C 305.882 120.556,305.882 120.173,305.821 119.939 C 305.760 119.705,305.710 119.897,305.710 120.365 M286.257 120.851 C 286.257 121.319,286.307 121.511,286.368 121.277 C 286.429 121.043,286.429 120.660,286.368 120.426 C 286.307 120.191,286.257 120.383,286.257 120.851 M110.505 123.830 L 109.544 124.863 110.578 123.902 C 111.539 123.008,111.723 122.796,111.539 122.796 C 111.499 122.796,111.034 123.261,110.505 123.830 M286.014 126.444 C 286.014 126.912,286.064 127.103,286.125 126.869 C 286.186 126.635,286.186 126.252,286.125 126.018 C 286.064 125.784,286.014 125.976,286.014 126.444 M71.976 128.511 C 72.429 128.979,72.855 129.362,72.922 129.362 C 72.989 129.362,72.673 128.979,72.219 128.511 C 71.765 128.043,71.339 127.660,71.272 127.660 C 71.206 127.660,71.522 128.043,71.976 128.511 M305.224 131.793 C 305.224 132.261,305.274 132.453,305.335 132.219 C 305.396 131.985,305.396 131.602,305.335 131.368 C 305.274 131.134,305.224 131.325,305.224 131.793 M124.255 137.508 C 123.665 138.109,123.236 138.602,123.303 138.602 C 123.370 138.602,123.908 138.109,124.498 137.508 C 125.089 136.906,125.518 136.413,125.451 136.413 C 125.384 136.413,124.846 136.906,124.255 137.508 M195.325 137.629 C 195.325 138.231,195.372 138.477,195.430 138.176 C 195.488 137.875,195.488 137.383,195.430 137.082 C 195.372 136.781,195.325 137.027,195.325 137.629 M285.528 137.872 C 285.528 138.340,285.578 138.532,285.639 138.298 C 285.700 138.064,285.700 137.681,285.639 137.447 C 285.578 137.213,285.528 137.404,285.528 137.872 M251.050 147.234 C 251.050 151.246,251.083 152.922,251.124 150.957 C 251.165 148.993,251.165 145.710,251.124 143.662 C 251.083 141.615,251.050 143.222,251.050 147.234 M285.284 143.465 C 285.284 143.933,285.334 144.125,285.396 143.891 C 285.457 143.657,285.457 143.274,285.396 143.040 C 285.334 142.805,285.284 142.997,285.284 143.465 M195.315 147.599 C 195.315 148.067,195.365 148.258,195.426 148.024 C 195.487 147.790,195.487 147.407,195.426 147.173 C 195.365 146.939,195.315 147.131,195.315 147.599 M56.157 152.401 L 55.319 153.313 56.231 152.475 C 57.080 151.695,57.255 151.489,57.069 151.489 C 57.028 151.489,56.618 151.900,56.157 152.401 M229.357 153.191 C 229.357 153.660,229.407 153.851,229.469 153.617 C 229.530 153.383,229.530 153.000,229.469 152.766 C 229.407 152.532,229.357 152.723,229.357 153.191 M133.495 155.015 C 132.905 155.617,132.476 156.109,132.543 156.109 C 132.610 156.109,133.148 155.617,133.739 155.015 C 134.329 154.413,134.758 153.921,134.691 153.921 C 134.624 153.921,134.086 154.413,133.495 155.015 M284.798 154.894 C 284.798 155.362,284.848 155.553,284.909 155.319 C 284.970 155.085,284.970 154.702,284.909 154.468 C 284.848 154.234,284.798 154.426,284.798 154.894 M229.119 159.635 C 229.122 160.170,229.172 160.360,229.230 160.058 C 229.288 159.755,229.286 159.318,229.225 159.085 C 229.164 158.853,229.116 159.100,229.119 159.635 M284.555 160.486 C 284.555 160.954,284.605 161.146,284.666 160.912 C 284.727 160.678,284.727 160.295,284.666 160.061 C 284.605 159.827,284.555 160.018,284.555 160.486 M70.017 166.018 L 69.179 166.930 70.091 166.092 C 70.940 165.312,71.115 165.106,70.929 165.106 C 70.889 165.106,70.478 165.517,70.017 166.018 M250.798 169.119 C 250.798 171.258,250.835 172.101,250.880 170.991 C 250.925 169.882,250.925 168.131,250.880 167.101 C 250.834 166.071,250.797 166.979,250.798 169.119 M113.126 166.565 C 113.126 167.033,113.176 167.225,113.238 166.991 C 113.299 166.757,113.299 166.374,113.238 166.140 C 113.176 165.906,113.126 166.097,113.126 166.565 M228.892 168.267 C 228.892 169.137,228.937 169.492,228.990 169.058 C 229.044 168.623,229.044 167.912,228.990 167.477 C 228.937 167.043,228.892 167.398,228.892 168.267 M147.223 168.815 L 146.261 169.848 147.295 168.887 C 148.256 167.993,148.440 167.781,148.256 167.781 C 148.216 167.781,147.751 168.246,147.223 168.815 M284.111 174.954 C 284.111 177.094,284.148 177.937,284.193 176.827 C 284.238 175.718,284.238 173.967,284.193 172.937 C 284.147 171.907,284.110 172.815,284.111 174.954 M250.536 191.733 C 250.537 192.669,250.581 193.022,250.633 192.517 C 250.686 192.013,250.685 191.247,250.631 190.815 C 250.578 190.384,250.535 190.796,250.536 191.733 M368.024 194.772 C 369.088 195.842,370.013 196.717,370.080 196.717 C 370.147 196.717,369.331 195.842,368.267 194.772 C 367.204 193.702,366.279 192.827,366.212 192.827 C 366.145 192.827,366.961 193.702,368.024 194.772 M53.982 194.848 C 53.982 194.890,54.337 195.246,54.772 195.638 L 55.562 196.353 54.848 195.562 C 54.182 194.826,53.982 194.660,53.982 194.848 M76.179 198.055 C 76.181 198.723,76.228 198.968,76.284 198.598 C 76.340 198.229,76.338 197.682,76.281 197.383 C 76.223 197.084,76.177 197.386,76.179 198.055 M111.181 199.878 C 111.181 200.347,111.231 200.538,111.292 200.304 C 111.353 200.070,111.353 199.687,111.292 199.453 C 111.231 199.219,111.181 199.410,111.181 199.878 M250.279 202.067 C 250.279 202.669,250.326 202.915,250.384 202.614 C 250.442 202.313,250.442 201.821,250.384 201.520 C 250.326 201.219,250.279 201.465,250.279 202.067 M56.966 205.228 C 56.966 205.830,57.013 206.076,57.071 205.775 C 57.129 205.474,57.129 204.982,57.071 204.681 C 57.013 204.380,56.966 204.626,56.966 205.228 M76.419 206.201 C 76.419 206.802,76.466 207.049,76.524 206.748 C 76.582 206.447,76.582 205.954,76.524 205.653 C 76.466 205.353,76.419 205.599,76.419 206.201 M110.954 207.416 C 110.954 208.152,111.000 208.453,111.056 208.085 C 111.111 207.717,111.111 207.116,111.056 206.748 C 111.000 206.380,110.954 206.681,110.954 207.416 M194.845 207.903 C 194.845 208.638,194.890 208.939,194.946 208.571 C 195.002 208.204,195.002 207.602,194.946 207.234 C 194.890 206.866,194.845 207.167,194.845 207.903 M250.031 209.483 C 250.034 210.018,250.083 210.208,250.142 209.906 C 250.200 209.604,250.198 209.166,250.137 208.933 C 250.076 208.701,250.028 208.948,250.031 209.483 M194.828 210.578 C 194.828 211.046,194.878 211.237,194.940 211.003 C 195.001 210.769,195.001 210.386,194.940 210.152 C 194.878 209.918,194.828 210.109,194.828 210.578 M57.209 213.252 C 57.209 213.854,57.257 214.100,57.314 213.799 C 57.372 213.498,57.372 213.006,57.314 212.705 C 57.257 212.404,57.209 212.650,57.209 213.252 M76.662 214.225 C 76.662 214.827,76.709 215.073,76.767 214.772 C 76.825 214.471,76.825 213.979,76.767 213.678 C 76.709 213.377,76.662 213.623,76.662 214.225 M249.783 215.684 C 249.783 216.152,249.833 216.343,249.894 216.109 C 249.955 215.875,249.955 215.492,249.894 215.258 C 249.833 215.024,249.783 215.216,249.783 215.684 M228.894 217.751 C 228.895 218.687,228.939 219.040,228.992 218.536 C 229.045 218.031,229.044 217.265,228.990 216.833 C 228.936 216.402,228.893 216.815,228.894 217.751 M57.452 221.277 C 57.452 221.878,57.500 222.125,57.558 221.824 C 57.616 221.523,57.616 221.030,57.558 220.729 C 57.500 220.429,57.452 220.675,57.452 221.277 M76.905 222.249 C 76.905 222.851,76.953 223.097,77.011 222.796 C 77.068 222.495,77.068 222.003,77.011 221.702 C 76.953 221.401,76.905 221.647,76.905 222.249 M126.748 223.343 C 126.751 223.878,126.801 224.069,126.859 223.766 C 126.917 223.464,126.915 223.026,126.854 222.794 C 126.793 222.561,126.746 222.809,126.748 223.343 M110.951 228.207 C 110.953 228.875,111.000 229.120,111.056 228.750 C 111.112 228.381,111.110 227.834,111.053 227.535 C 110.995 227.236,110.949 227.538,110.951 228.207 M283.858 229.909 C 283.858 231.246,283.899 231.762,283.949 231.056 C 283.998 230.349,283.997 229.255,283.947 228.624 C 283.897 227.993,283.857 228.571,283.858 229.909 M76.922 229.666 C 76.923 230.736,76.966 231.143,77.017 230.571 C 77.069 229.999,77.068 229.124,77.016 228.626 C 76.963 228.128,76.921 228.596,76.922 229.666 M126.756 230.881 C 126.758 231.550,126.806 231.795,126.861 231.425 C 126.917 231.056,126.916 230.508,126.858 230.209 C 126.800 229.910,126.755 230.213,126.756 230.881 M57.461 231.368 C 57.463 232.170,57.508 232.469,57.562 232.032 C 57.616 231.595,57.615 230.939,57.560 230.573 C 57.504 230.208,57.460 230.565,57.461 231.368 M229.114 231.733 C 229.114 232.201,229.164 232.392,229.225 232.158 C 229.287 231.924,229.287 231.541,229.225 231.307 C 229.164 231.073,229.114 231.264,229.114 231.733 M76.652 238.298 C 76.652 238.766,76.702 238.957,76.763 238.723 C 76.825 238.489,76.825 238.106,76.763 237.872 C 76.702 237.638,76.652 237.830,76.652 238.298 M283.851 242.918 C 283.851 243.921,283.894 244.331,283.946 243.830 C 283.999 243.328,283.999 242.508,283.946 242.006 C 283.894 241.505,283.851 241.915,283.851 242.918 M284.069 250.942 C 284.069 251.410,284.119 251.602,284.180 251.368 C 284.241 251.134,284.241 250.751,284.180 250.517 C 284.119 250.283,284.069 250.474,284.069 250.942 M239.027 257.629 C 239.481 258.097,239.907 258.480,239.974 258.480 C 240.041 258.480,239.724 258.097,239.271 257.629 C 238.817 257.161,238.391 256.778,238.324 256.778 C 238.257 256.778,238.574 257.161,239.027 257.629 M234.520 276.778 L 233.313 278.055 234.590 276.848 C 235.776 275.727,235.978 275.502,235.796 275.502 C 235.758 275.502,235.183 276.076,234.520 276.778 M186.248 281.033 L 185.410 281.945 186.322 281.107 C 187.171 280.327,187.346 280.122,187.160 280.122 C 187.120 280.122,186.709 280.532,186.248 281.033 M203.830 290.995 C 204.198 291.051,204.799 291.051,205.167 290.995 C 205.535 290.939,205.234 290.894,204.498 290.894 C 203.763 290.894,203.462 290.939,203.830 290.995 " stroke="none" fill="#9c9c9c" fill-rule="evenodd"></path><path id="path3" d="" stroke="none" fill="#8c8c8c" fill-rule="evenodd"></path><path id="path4" d="M306.453 97.872 C 306.454 98.541,306.502 98.786,306.557 98.416 C 306.613 98.046,306.612 97.499,306.554 97.200 C 306.496 96.901,306.451 97.204,306.453 97.872 M232.032 107.477 C 232.032 107.945,232.082 108.137,232.143 107.903 C 232.204 107.669,232.204 107.286,232.143 107.052 C 232.082 106.818,232.032 107.009,232.032 107.477 M286.743 107.964 C 286.743 108.432,286.793 108.623,286.855 108.389 C 286.916 108.155,286.916 107.772,286.855 107.538 C 286.793 107.304,286.743 107.495,286.743 107.964 M163.241 109.544 C 163.242 110.480,163.286 110.833,163.339 110.329 C 163.391 109.824,163.390 109.058,163.337 108.627 C 163.283 108.195,163.240 108.608,163.241 109.544 M238.121 109.666 C 238.121 110.267,238.168 110.514,238.226 110.213 C 238.284 109.912,238.284 109.419,238.226 109.119 C 238.168 108.818,238.121 109.064,238.121 109.666 M306.196 110.638 C 306.196 111.106,306.246 111.298,306.307 111.064 C 306.369 110.830,306.369 110.447,306.307 110.213 C 306.246 109.979,306.196 110.170,306.196 110.638 M305.953 116.231 C 305.953 116.699,306.003 116.891,306.064 116.657 C 306.125 116.422,306.125 116.040,306.064 115.805 C 306.003 115.571,305.953 115.763,305.953 116.231 M305.710 122.067 C 305.710 122.535,305.760 122.726,305.821 122.492 C 305.882 122.258,305.882 121.875,305.821 121.641 C 305.760 121.407,305.710 121.599,305.710 122.067 M286.014 124.985 C 286.014 125.453,286.064 125.644,286.125 125.410 C 286.186 125.176,286.186 124.793,286.125 124.559 C 286.064 124.325,286.014 124.517,286.014 124.985 M305.467 127.660 C 305.467 128.128,305.517 128.319,305.578 128.085 C 305.639 127.851,305.639 127.468,305.578 127.234 C 305.517 127.000,305.467 127.191,305.467 127.660 M305.224 133.252 C 305.224 133.720,305.274 133.912,305.335 133.678 C 305.396 133.444,305.396 133.061,305.335 132.827 C 305.274 132.593,305.224 132.784,305.224 133.252 M86.754 133.187 C 87.326 133.239,88.201 133.238,88.699 133.186 C 89.197 133.134,88.729 133.092,87.660 133.092 C 86.590 133.093,86.182 133.136,86.754 133.187 M251.020 138.602 C 251.020 139.471,251.064 139.827,251.118 139.392 C 251.172 138.957,251.172 138.246,251.118 137.812 C 251.064 137.377,251.020 137.733,251.020 138.602 M285.284 142.006 C 285.284 142.474,285.334 142.666,285.396 142.432 C 285.457 142.198,285.457 141.815,285.396 141.581 C 285.334 141.347,285.284 141.538,285.284 142.006 M229.357 151.733 C 229.357 152.201,229.407 152.392,229.469 152.158 C 229.530 151.924,229.530 151.541,229.469 151.307 C 229.407 151.073,229.357 151.264,229.357 151.733 M284.798 153.435 C 284.798 153.903,284.848 154.094,284.909 153.860 C 284.970 153.626,284.970 153.243,284.909 153.009 C 284.848 152.775,284.798 152.967,284.798 153.435 M251.032 157.082 C 251.032 158.486,251.072 159.061,251.122 158.359 C 251.171 157.657,251.171 156.508,251.122 155.805 C 251.072 155.103,251.032 155.678,251.032 157.082 M229.114 157.812 C 229.114 158.280,229.164 158.471,229.225 158.237 C 229.287 158.003,229.287 157.620,229.225 157.386 C 229.164 157.152,229.114 157.343,229.114 157.812 M284.555 159.027 C 284.555 159.495,284.605 159.687,284.666 159.453 C 284.727 159.219,284.727 158.836,284.666 158.602 C 284.605 158.368,284.555 158.559,284.555 159.027 M113.139 164.498 C 113.141 165.167,113.189 165.412,113.244 165.042 C 113.300 164.673,113.299 164.126,113.241 163.826 C 113.183 163.527,113.138 163.830,113.139 164.498 M228.887 165.593 C 228.887 166.328,228.933 166.629,228.989 166.261 C 229.044 165.894,229.044 165.292,228.989 164.924 C 228.933 164.556,228.887 164.857,228.887 165.593 M284.069 170.456 C 284.069 170.924,284.119 171.116,284.180 170.881 C 284.241 170.647,284.241 170.264,284.180 170.030 C 284.119 169.796,284.069 169.988,284.069 170.456 M250.800 177.386 C 250.800 179.793,250.836 180.745,250.880 179.501 C 250.925 178.258,250.924 176.288,250.880 175.124 C 250.835 173.961,250.799 174.979,250.800 177.386 M284.082 179.818 C 284.084 180.486,284.131 180.731,284.187 180.361 C 284.243 179.992,284.241 179.445,284.183 179.146 C 284.126 178.847,284.080 179.149,284.082 179.818 M228.686 194.772 C 228.686 203.264,228.716 206.739,228.754 202.492 C 228.791 198.246,228.791 191.298,228.754 187.052 C 228.716 182.805,228.686 186.280,228.686 194.772 M250.531 194.894 C 250.533 195.696,250.578 195.995,250.632 195.558 C 250.686 195.121,250.685 194.464,250.630 194.099 C 250.574 193.734,250.530 194.091,250.531 194.894 M56.718 199.271 C 56.721 199.805,56.770 199.996,56.829 199.693 C 56.887 199.391,56.884 198.953,56.824 198.721 C 56.763 198.488,56.715 198.736,56.718 199.271 M76.419 204.012 C 76.419 204.614,76.466 204.860,76.524 204.559 C 76.582 204.258,76.582 203.766,76.524 203.465 C 76.466 203.164,76.419 203.410,76.419 204.012 M250.279 204.255 C 250.279 204.857,250.326 205.103,250.384 204.802 C 250.442 204.502,250.442 204.009,250.384 203.708 C 250.326 203.407,250.279 203.653,250.279 204.255 M110.948 205.228 C 110.948 205.830,110.995 206.076,111.053 205.775 C 111.111 205.474,111.111 204.982,111.053 204.681 C 110.995 204.380,110.948 204.626,110.948 205.228 M56.961 207.295 C 56.964 207.830,57.014 208.020,57.072 207.718 C 57.130 207.415,57.128 206.977,57.067 206.745 C 57.006 206.512,56.958 206.760,56.961 207.295 M250.026 211.307 C 250.026 211.775,250.076 211.967,250.137 211.733 C 250.198 211.498,250.198 211.116,250.137 210.881 C 250.076 210.647,250.026 210.839,250.026 211.307 M76.662 212.036 C 76.662 212.638,76.709 212.884,76.767 212.584 C 76.825 212.283,76.825 211.790,76.767 211.489 C 76.709 211.188,76.662 211.435,76.662 212.036 M15.619 215.198 C 15.619 215.666,15.669 215.857,15.730 215.623 C 15.791 215.389,15.791 215.006,15.730 214.772 C 15.669 214.538,15.619 214.729,15.619 215.198 M57.204 215.319 C 57.207 215.854,57.257 216.044,57.315 215.742 C 57.373 215.439,57.371 215.002,57.310 214.769 C 57.249 214.537,57.201 214.784,57.204 215.319 M249.783 217.143 C 249.783 217.611,249.833 217.802,249.894 217.568 C 249.955 217.334,249.955 216.951,249.894 216.717 C 249.833 216.483,249.783 216.675,249.783 217.143 M76.905 220.061 C 76.905 220.663,76.953 220.909,77.011 220.608 C 77.068 220.307,77.068 219.815,77.011 219.514 C 76.953 219.213,76.905 219.459,76.905 220.061 M228.892 221.033 C 228.892 221.903,228.937 222.258,228.990 221.824 C 229.044 221.389,229.044 220.678,228.990 220.243 C 228.937 219.809,228.892 220.164,228.892 221.033 M15.619 221.763 C 15.619 222.231,15.669 222.422,15.730 222.188 C 15.791 221.954,15.791 221.571,15.730 221.337 C 15.669 221.103,15.619 221.295,15.619 221.763 M161.058 223.222 C 161.058 224.359,161.099 224.824,161.151 224.255 C 161.202 223.687,161.202 222.757,161.151 222.188 C 161.099 221.620,161.058 222.085,161.058 223.222 M57.484 226.140 C 57.484 228.213,57.521 229.061,57.567 228.024 C 57.612 226.988,57.612 225.292,57.567 224.255 C 57.521 223.219,57.484 224.067,57.484 226.140 M126.779 227.112 C 126.779 228.650,126.818 229.280,126.867 228.511 C 126.915 227.742,126.915 226.483,126.867 225.714 C 126.818 224.945,126.779 225.574,126.779 227.112 M283.842 226.383 C 283.842 227.119,283.887 227.419,283.943 227.052 C 283.999 226.684,283.999 226.082,283.943 225.714 C 283.887 225.347,283.842 225.647,283.842 226.383 M110.938 230.274 C 110.938 230.742,110.988 230.933,111.049 230.699 C 111.110 230.465,111.110 230.082,111.049 229.848 C 110.988 229.614,110.938 229.805,110.938 230.274 M76.912 232.948 C 76.912 233.684,76.957 233.985,77.013 233.617 C 77.069 233.249,77.069 232.647,77.013 232.280 C 76.957 231.912,76.912 232.213,76.912 232.948 M385.744 236.960 C 385.745 238.432,385.785 239.002,385.833 238.228 C 385.882 237.454,385.881 236.251,385.832 235.553 C 385.784 234.856,385.744 235.489,385.744 236.960 M283.835 245.836 C 283.835 246.438,283.883 246.684,283.941 246.383 C 283.999 246.082,283.999 245.590,283.941 245.289 C 283.883 244.988,283.835 245.234,283.835 245.836 M164.559 289.297 C 165.128 289.348,166.058 289.348,166.626 289.297 C 167.195 289.245,166.729 289.204,165.593 289.204 C 164.456 289.204,163.991 289.245,164.559 289.297 M86.626 289.529 C 86.860 289.590,87.243 289.590,87.477 289.529 C 87.711 289.468,87.520 289.418,87.052 289.418 C 86.584 289.418,86.392 289.468,86.626 289.529 M90.760 289.529 C 90.994 289.590,91.377 289.590,91.611 289.529 C 91.845 289.468,91.653 289.418,91.185 289.418 C 90.717 289.418,90.526 289.468,90.760 289.529 " stroke="none" fill="#7c7c7c" fill-rule="evenodd"></path></g></svg>